<?xml version="1.0" standalone="no"?>
<!DOCTYPE svg PUBLIC "-//W3C//DTD SVG 20010904//EN"
 "http://www.w3.org/TR/2001/REC-SVG-20010904/DTD/svg10.dtd">
<svg version="1.0" xmlns="http://www.w3.org/2000/svg"
 width="260.000000pt" height="260.000000pt" viewBox="0 0 260.000000 260.000000"
 preserveAspectRatio="xMidYMid meet">
<metadata>
Created by potrace 1.14, written by Peter Selinger 2001-2017
</metadata>
<g transform="translate(0.000000,260.000000) scale(0.100000,-0.100000)"
fill="#000000" stroke="none">
<path d="M0 1300 l0 -1300 1300 0 1300 0 0 1300 0 1300 -1300 0 -1300 0 0
-1300z m1710 173 c183 -439 353 -837 377 -886 69 -139 119 -183 232 -208 44
-9 51 -14 51 -35 l0 -24 -375 0 -375 0 0 25 c0 20 6 25 38 30 69 12 101 26
127 56 43 52 36 84 -72 347 l-75 182 -371 -2 -370 -3 -73 -170 c-40 -93 -81
-199 -90 -234 -17 -62 -17 -65 2 -100 15 -29 29 -39 74 -53 30 -10 72 -20 93
-23 31 -5 37 -10 37 -30 l0 -25 -300 0 -300 0 0 25 c0 20 7 26 43 35 75 19 97
32 138 78 58 67 91 139 464 1014 325 761 341 798 366 798 24 0 39 -32 359
-797z"/>
<path d="M1110 1451 c-90 -209 -161 -383 -158 -386 3 -3 149 -4 325 -3 l320 3
-151 360 c-83 199 -156 371 -161 384 -9 20 -32 -26 -175 -358z"/>
</g>
</svg>
