<?xml version="1.0" standalone="no"?>
<!DOCTYPE svg PUBLIC "-//W3C//DTD SVG 20010904//EN"
 "http://www.w3.org/TR/2001/REC-SVG-20010904/DTD/svg10.dtd">
<svg version="1.0" xmlns="http://www.w3.org/2000/svg"
 width="260.000000pt" height="260.000000pt" viewBox="0 0 260.000000 260.000000"
 preserveAspectRatio="xMidYMid meet">
<metadata>
Created by potrace 1.14, written by Peter Selinger 2001-2017
</metadata>
<g transform="translate(0.000000,260.000000) scale(0.100000,-0.100000)"
fill="#000000" stroke="none">
<path d="M1321 2248 c-67 -171 -713 -1663 -744 -1717 -53 -92 -92 -127 -167
-148 -51 -14 -60 -20 -60 -40 l0 -23 295 0 295 0 0 24 c0 21 -6 24 -57 31 -75
9 -114 26 -142 61 -37 47 -25 105 71 329 l83 195 373 0 372 0 23 -52 c13 -29
50 -117 81 -196 92 -228 87 -293 -26 -327 -29 -8 -62 -15 -75 -15 -18 0 -23
-6 -23 -25 l0 -25 370 0 370 0 0 25 c0 18 -5 25 -19 25 -10 0 -43 8 -72 17
-69 23 -122 75 -174 173 -21 41 -192 442 -380 890 -296 707 -344 815 -363 818
-15 2 -25 -3 -31 -20z m118 -794 c83 -199 154 -369 157 -378 6 -14 -25 -16
-326 -16 -262 0 -331 3 -327 13 3 6 71 165 152 352 81 187 153 355 161 374 9
20 18 31 23 25 5 -5 77 -172 160 -370z"/>
</g>
</svg>
